<svg xmlns="http://www.w3.org/2000/svg">
  <symbol id="fb" viewBox="0 0 9 19">
    <title>fb</title>
    <path d="M6.3 3.4c0.8 0 1.6 0 2.4 0 0-1.1 0-2.2 0-3.4 -1 0-1.9 0-2.9 0C2.7 0.2 1.5 2.4 1.9 6.1H0v3.5h2c0 3.1 0 6.2 0 9.3 1.3 0 2.6 0 3.8 0 0-3.1 0-6.2 0-9.3h2.9V6.1H5.8C5.8 5.1 5.8 3.7 6.3 3.4z"/>
  </symbol>
  <symbol id="tw" viewBox="0 0 18 15">
    <title>tw</title>
    <path d="M11.3 0.2c1.7-0.5 3.1 0.3 3.7 1.2 0.7-0.2 1.4-0.5 2.1-0.7 0 0.8-0.5 1.5-0.9 1.7C16.9 2.5 17.5 1.9 17.5 1.9c-0.2 1-1 1.7-1.6 2C15.7 10.4 12.6 14.8 5.5 14.7c-0.5 0 0.1 0-0.5 0 -0.4 0-4.3-0.4-5-1.8 2.3 0.2 4-0.4 4.8-1.1 -1-0.3-2.8-0.5-3.1-2.9 0.4 0.1 0.6 0.2 1.2 0.1C1.8 8.1 0.4 7.4 0.5 5.2c0.3 0.3 1.1 0.5 1.4 0.5 -0.7-0.2-2-3.3-0.9-4.8C2.8 2.7 4.8 4.4 8.3 4.5 8.5 2.3 9.5 0.8 11.3 0.2z"/>
  </symbol>
  <symbol id="ut" viewBox="0 0 20 14">
    <title>ut</title>
    <path d="M17.1 0H2.8C1.3 0 0 1.3 0 2.8v8.3c0 1.6 1.3 2.8 2.8 2.8h14.3c1.6 0 2.8-1.3 2.8-2.8V2.8C20 1.3 18.7 0 17.1 0zM7 10.4V3.6l6.8 3.4L7 10.4z"/>
  </symbol>
  <symbol id="html-logo" viewBox="0 0 27 34">
    <title>html-logo</title>
    <path d="M13.6 0L13.5 0 0 1.4v24.7l13.5 8 13.4-8 0 0V1.4L13.6 0zM25 12.1L13.5 5.3 13.5 5.2l-0.1 0.1 -0.1-0.1v0.1L1.9 12.1V3.1l11.5-1.2 11.5 1.2V12.1zM13.4 6.8L24.9 13.5l-4.5 2.6 -7.1-4.2 0 1.4 5.9 3.5 -0.9 0.5 -5-3 0 1.4 3.8 2.3 -0.8 0.5 -3-1.8 0 1.4 1.9 1.1 -1.8 1.1L2 13.6 13.4 6.8zM1.9 15.1l11.4 6.8 0 1L5.4 18.2 5.4 19.7l8 4.8 0 1.1 -8-4.7 0 1.4 8 4.8 0 0 8.1-4.9 0-5.2 3.4-2v10L13.5 31.9 1.9 25V15.1z"/>
  </symbol>
  <symbol id="video-full" viewBox="0 0 20 20">
    <title>video-full</title>
    <polygon points="0 0 0 3 0 6 3 6 3 3 6 3 6 0 3 0"/><polygon points="3 14 0 14 0 17 0 20 3 20 6 20 6 17 3 17"/><polygon points="17 0 14 0 14 3 17 3 17 6 20 6 20 3 20 0"/><polygon points="17 17 14 17 14 20 17 20 20 20 20 17 20 14 17 14"/>
  </symbol>
  <symbol id="video-sub" viewBox="0 0 32 20">
    <title>video-sub</title>
    <path d="M29 0H3C1.4 0 0 1.4 0 3v14c0 1.7 1.4 3 3 3h26c1.7 0 3-1.3 3-3V3C32 1.4 30.7 0 29 0zM14.4 15.9c-0.5 0.1-1.1 0.2-1.7 0.2 -0.7 0-1.4-0.1-2-0.3 -0.6-0.2-1.2-0.6-1.6-1s-0.9-1.1-1.1-1.9C7.7 12 7.6 11.1 7.6 10c0-1.1 0.2-2.1 0.5-2.9 0.3-0.8 0.7-1.4 1.2-1.9 0.5-0.5 1.1-0.8 1.7-1 0.6-0.2 1.2-0.3 1.9-0.3 0.7 0 1.2 0 1.7 0.1 0.5 0.1 0.8 0.2 1.1 0.3L15.1 6.3c-0.3-0.1-0.6-0.2-0.9-0.3C13.9 6 13.5 6 13 6c-0.9 0-1.6 0.3-2.2 1 -0.6 0.7-0.8 1.7-0.8 3 0 0.6 0.1 1.1 0.2 1.6 0.1 0.5 0.3 0.9 0.6 1.3 0.3 0.3 0.6 0.6 1 0.8 0.4 0.2 0.9 0.3 1.4 0.3 0.5 0 0.9 0 1.3-0.1 0.3-0.1 0.6-0.2 0.9-0.4l0.5 1.8C15.4 15.6 14.9 15.7 14.4 15.9zM23.1 15.9c-0.5 0.1-1.1 0.2-1.7 0.2 -0.7 0-1.4-0.1-2-0.3 -0.6-0.2-1.2-0.6-1.6-1s-0.9-1.1-1.1-1.9c-0.3-0.8-0.4-1.7-0.4-2.8 0-1.1 0.2-2.1 0.5-2.9 0.3-0.8 0.7-1.4 1.2-1.9 0.5-0.5 1.1-0.8 1.7-1 0.6-0.2 1.2-0.3 1.9-0.3 0.7 0 1.2 0 1.7 0.1 0.5 0.1 0.8 0.2 1.1 0.3l-0.4 1.9c-0.3-0.1-0.6-0.2-0.9-0.3C22.6 6 22.2 6 21.7 6c-0.9 0-1.6 0.3-2.2 1 -0.6 0.7-0.8 1.7-0.8 3 0 0.6 0.1 1.1 0.2 1.6 0.1 0.5 0.3 0.9 0.6 1.3 0.3 0.3 0.6 0.6 1 0.8 0.4 0.2 0.9 0.3 1.4 0.3 0.5 0 0.9 0 1.3-0.1 0.3-0.1 0.6-0.2 0.9-0.4l0.5 1.8C24.1 15.6 23.6 15.7 23.1 15.9z"/>
  </symbol>
  <symbol id="video-replay" viewBox="0 0 16 20">
    <title>video-replay</title>
    <path d="M8 4V0L3 5l5 5V6c3.3 0 6 2.7 6 6s-2.7 6-6 6 -6-2.7-6-6H0c0 4.4 3.6 8 8 8s8-3.6 8-8S12.4 4 8 4z"/>
  </symbol>
</svg>
